<svg width="360" height="360" fill="none" xmlns="http://www.w3.org/2000/svg">
     <g clip-path="url(#prefix__clip0_1928_12651)">
          <path d="M46.66 263.061h85.757v39.218H46.66v-39.218z" fill="#fff" stroke="#2E186A" stroke-width="1.808"
               stroke-linecap="round" stroke-linejoin="round" />
          <path d="M68.098 262.016l.018 24.838 6.26-10.196 6.26 10.196 5.6-9.117 5.115 8.333v-23.988l-23.253-.066z"
               fill="#FEBA91" />
          <path d="M78.337 135.682l-2.137-7.936M119.924 200.748c.527-5.666 2.17-16.173-11.432-22.695-13.603-6.522-21.9-13.005-25.526-27.518"
               stroke="#2E186A" stroke-width="1.808" stroke-linecap="round" stroke-linejoin="round" />
          <path d="M85.479 148.43l-3.39-12.599a2.45 2.45 0 00-3.003-1.729l-1.743.469a2.45 2.45 0 00-1.73 3.003l3.39 12.599a2.45 2.45 0 003.003 1.729l1.743-.469a2.45 2.45 0 001.73-3.003z"
               fill="#49BEFF" />
          <path d="M54.436 174.313l-8.217-.006" stroke="#2E186A" stroke-width="1.808" stroke-linecap="round"
               stroke-linejoin="round" />
          <path d="M68.601 170.738H55.554a2.45 2.45 0 00-2.45 2.451v1.805a2.45 2.45 0 002.45 2.45H68.6a2.45 2.45 0 002.45-2.45v-1.805a2.45 2.45 0 00-2.45-2.451z"
               fill="#49BEFF" />
          <path d="M69.144 173.776s30.197-1.7 44.306 23.663M247.717 230.643c8.104 0 13.864 1.892 14.25 20.13.386 18.238-.422 34.724 15.492 34.513 14.705-.196 11.438-6.145 18.234-5.883"
               stroke="#2E186A" stroke-width="1.808" stroke-linecap="round" stroke-linejoin="round" />
          <path d="M311.252 272.082h-16.993a1.961 1.961 0 00-1.962 1.962v10.585c0 1.084.878 1.962 1.962 1.962h16.993a1.962 1.962 0 001.962-1.962v-10.585a1.962 1.962 0 00-1.962-1.962z"
               fill="#49BEFF" />
          <path d="M306.022 272.061l-.021 14.554" stroke="#2E186A" stroke-width="1.808" stroke-linejoin="round" />
          <path d="M309.769 275.961h11.2m-11.2 5.425h11.2M254.122 66.363v7.427m3.713-3.714h-7.424M201.31 93.555v7.424m3.711-3.71h-7.424m-38.904-39.794v7.423m3.71-3.71h-7.424m-40.996 56.684v7.423m3.713-3.713h-7.426M62.74 89.109v7.427m3.71-3.713h-7.424m-4.391 106.36v7.424m3.71-3.71H50.92m-11.19-65.157v7.427m3.713-3.714h-7.427m251.702 17.596v7.427m3.713-3.714h-7.424m17.439-65.286v7.427m3.71-3.713h-7.423m31.165 105.314v7.424m3.713-3.713h-7.427"
               stroke="#2E186A" stroke-width="1.808" stroke-linecap="round" stroke-linejoin="round" />
          <path d="M290.784 206.212l-33.54-30.722H205.03l.512.639h-91.297l-33.47 30.722v7.93h33.455v88.502h143.554v-89.156h33v-7.915z"
               fill="#5D87FF" />
          <path d="M245.128 256.461h-7.321v30.589h-8.367v-31.113h-6.797l11.505-32.16 10.98 32.684z" fill="#fff" />
          <path d="M205.623 183.318v117.133m-.262-117.169l-30.634 31.071m27.237-34.824l-27.496 27.889m-59.918 7.276h59.963v-7.138H81.619m175.95 6.511h-32.168v-7.138h62.67m-82.36-23.822l19.292 30.866m-11.827-26.219l12.273 19.314"
               stroke="#2E186A" stroke-width="1.808" stroke-linecap="round" stroke-linejoin="round" />
          <path d="M187.069 233.648h-56.491a4.521 4.521 0 00-4.521 4.521v26.255a4.52 4.52 0 004.521 4.521h56.491a4.52 4.52 0 004.521-4.521v-26.255a4.521 4.521 0 00-4.521-4.521z"
               fill="#2E186A" />
          <path d="M132.637 257.178a.92.92 0 01-.675-.275.9.9 0 01-.275-.675.934.934 0 01.169-.551l11.432-16.529a.878.878 0 01.781-.383.951.951 0 01.675.275.943.943 0 01.274.675v15.564h2.863a.957.957 0 01.878.586.963.963 0 010 .727.957.957 0 01-.514.513.946.946 0 01-.364.073h-2.863v5.142a.95.95 0 01-1.899 0v-5.142h-10.482zm10.482-1.899v-12.49l-8.647 12.49h8.647zM151.278 250.972a22.152 22.152 0 01.796-6.305c.53-1.774 1.276-3.181 2.236-4.22a6.815 6.815 0 011.959-1.278 6.014 6.014 0 014.63 0 6.94 6.94 0 011.95 1.278c.97 1.043 1.718 2.45 2.242 4.22a25.635 25.635 0 010 12.628c-.524 1.777-1.272 3.183-2.242 4.22a6.813 6.813 0 01-1.95 1.278 5.976 5.976 0 01-4.63 0 6.692 6.692 0 01-1.953-1.272c-.96-1.041-1.706-2.447-2.236-4.22-.57-2.06-.84-4.192-.802-6.329zm7.3-10.377a3.974 3.974 0 00-2.924 1.224c-1.643 1.838-2.464 4.889-2.462 9.153.002 4.264.823 7.33 2.462 9.199a3.959 3.959 0 002.924 1.205 4.01 4.01 0 002.924-1.205c1.655-1.857 2.482-4.923 2.48-9.199-.002-4.276-.829-7.327-2.48-9.153a4.032 4.032 0 00-2.924-1.218v-.006zM169.368 257.178a.943.943 0 01-.878-.585.932.932 0 01-.068-.365.95.95 0 01.166-.551l11.435-16.529a.87.87 0 01.78-.383.913.913 0 01.672.275.918.918 0 01.278.675v15.564h2.86a.92.92 0 01.675.277.964.964 0 010 1.348.937.937 0 01-.675.274h-2.869v5.142a.928.928 0 01-.278.675.963.963 0 01-1.344 0 .911.911 0 01-.277-.675v-5.142h-10.477zm10.486-1.899v-12.49l-8.659 12.49h8.659z"
               fill="#fff" />
          <path d="M240.396 123.902c-6.028-1.654-10.371-.633-10.371-.633-3.834-8.538-15.974-16.471-15.974-16.471-8.539 4.446-4.618 22.575-4.618 22.575l-4.88 1.829c-6.1-7.408-14.642-15.513-17.104-15.688-5.687-.403-5.883 25.101-5.883 25.101-13.838 8.231-27.991 16.833-39.004 24.244.407-5.295 2.929-12.137 9.078-20.495 11.242-15.296 13.726-35.526 3.354-47.76-14.554-17.18-27.888-11.332-35.818-3.746-8.02 7.668-9.241 21.177 3.316 12.201 12.631-9.042 18.825-4.358 24.75 6.799 5.926 11.158-12.375 28.332-20.914 42.269-4.789 7.818-7.149 15.543-7.046 22.002h57.929a8.158 8.158 0 00-.335.392l2.872-.392h18.443c7.363 7.086 24.624 20.29 28.479 12.68 1.944-3.831 2.794-8.033 1.986-12.02 1.709 3.264 7.056 12.487 11.704 9.904 4.026-2.237 7.233-8.5 6.453-15.07 2.995-2.764 5.301-5.706 6.745-8.792 11.764-21.17-7.812-37.455-13.162-38.929z"
               fill="#49BEFF" />
          <path d="M246.409 136.519c7.191-10.983 24.187-12.55 24.187-12.55m-21.179 21.438c1.7-3.4 14.25-10.458 23.662-7.713M208.243 154.688c-5.145-1.682-15.432-2.836-23.305 4.723m22.865-9.253c-4.968-4.313-18.172-5.492-27.322 1.437M190.198 117.693s-6.538 15.556.654 20.797M215.428 108.936s-3.4 11.754-.262 19.738"
               stroke="#2E186A" stroke-width="1.808" stroke-linecap="round" stroke-linejoin="round" />
          <path d="M216.733 147.931c1.228-.422 1.683-2.335 1.017-4.273-.666-1.938-2.201-3.167-3.429-2.744-1.228.422-1.683 2.335-1.017 4.272.666 1.938 2.201 3.167 3.429 2.745zM234.379 142.31c1.228-.422 1.683-2.335 1.017-4.273-.666-1.938-2.201-3.167-3.429-2.745-1.228.422-1.683 2.336-1.017 4.273.666 1.938 2.201 3.167 3.429 2.745zM232.795 145.946l-2.171 3.575a1.133 1.133 0 01-1.54.358l-3.36-2.004a1.028 1.028 0 01.259-1.893l5.531-1.57c.955-.274 1.769.711 1.281 1.534z"
               fill="#2E186A" />
          <path d="M227.002 153.281c3.463 4.391 3.351-1.079 2.803-3.961 1.115 2.505 4.065 6.137 4.521 2.11M222.683 190.966c-.35-.958-5.817-11.833-11.222-15.929m7.758-3.225c.26.088 6.631 10.549 6.884 17.693"
               stroke="#2E186A" stroke-width="1.808" stroke-linecap="round" stroke-linejoin="round" />
          <path d="M176.864 176.526c4.967-6.145 27.729-18.041 40.387-12.288 12.659 5.754 13.726 16.08 9.413 24.576M232.487 170.498s5.883 11.176 6.013 16.601m1.308-19.076s4.313 13.006 1.766 18.039"
               stroke="#2E186A" stroke-width="1.808" stroke-linecap="round" stroke-linejoin="round" />
          <path d="M222.086 166.15c1.588-2.553 15.549-10.896 21.734-2.216 1.124 1.577 2.351 4.648 2.851 6.312M.904 302.523h358.192"
               stroke="#2E186A" stroke-width="1.808" stroke-linecap="round" stroke-linejoin="round" />
     </g>
     <defs>
          <clipPath id="prefix__clip0_1928_12651">
               <path fill="#fff" d="M0 0h360v360H0z" />
          </clipPath>
     </defs>
</svg>